# Blender 4.1.1
# www.blender.org
mtllib Books1.mtl
o Livros2
v -0.150125 -0.622438 -0.677888
v -0.150125 0.622438 -0.677888
v 0.159254 -0.622438 -0.675802
v 0.159254 0.622438 -0.675802
v -0.159254 -0.622438 0.675802
v -0.159254 0.622438 0.675802
v 0.150125 -0.622438 0.677888
v 0.150125 0.622438 0.677888
v -1.626674 -0.607428 -0.778173
v -1.626674 0.926942 -0.778173
v -1.104806 -0.607428 -0.774653
v -1.104806 0.926942 -0.774653
v -1.637022 -0.607428 0.756162
v -1.637022 0.926942 0.756162
v -1.115153 -0.607428 0.759682
v -1.115153 0.926942 0.759682
v -1.051159 -0.613903 -0.774291
v -1.051159 0.494716 -0.774291
v -0.635538 -0.613903 -0.771488
v -0.635538 0.494716 -0.771488
v -1.061507 -0.613903 0.760044
v -1.061507 0.494716 0.760044
v -0.645885 -0.613903 0.762846
v -0.645885 0.494716 0.762846
v -0.597316 -0.625011 -0.771231
v -0.597316 0.917270 -0.771231
v -0.181695 -0.625011 -0.768428
v -0.181695 0.917270 -0.768428
v -0.607664 -0.625011 0.763104
v -0.607664 0.917270 0.763104
v -0.192043 -0.625011 0.765907
v -0.192043 0.917270 0.765907
v 0.580273 -0.613903 -0.763289
v 0.580273 0.494716 -0.763289
v 0.995894 -0.613903 -0.760486
v 0.995894 0.494716 -0.760486
v 0.569925 -0.613903 0.771046
v 0.569925 0.494716 0.771046
v 0.985547 -0.613903 0.773849
v 0.985547 0.494716 0.773849
v 1.034116 -0.625011 -0.760228
v 1.034116 0.917270 -0.760228
v 1.449737 -0.625011 -0.757425
v 1.449737 0.917270 -0.757425
v 1.023768 -0.625011 0.774107
v 1.023768 0.917270 0.774107
v 1.439389 -0.625011 0.776910
v 1.439389 0.917270 0.776910
v 1.481307 -0.622438 -0.666886
v 1.481307 0.622438 -0.666886
v 1.790686 -0.622438 -0.664799
v 1.790686 0.622438 -0.664799
v 1.472178 -0.622438 0.686804
v 1.472178 0.622438 0.686804
v 1.781557 -0.622438 0.688891
v 1.781557 0.622438 0.688891
v 1.828586 -0.613903 -0.754870
v 1.828586 0.494716 -0.754870
v 2.244208 -0.613903 -0.752067
v 2.244208 0.494716 -0.752067
v 1.818239 -0.613903 0.779465
v 1.818239 0.494716 0.779465
v 2.233860 -0.613903 0.782268
v 2.233860 0.494716 0.782268
v 2.282429 -0.625011 -0.751810
v 2.282429 0.917270 -0.751810
v 2.698050 -0.625011 -0.749007
v 2.698050 0.917270 -0.749007
v 2.272081 -0.625011 0.782525
v 2.272081 0.917270 0.782525
v 2.687703 -0.625011 0.785328
v 2.687703 0.917270 0.785328
vn 0.0067 -0.0000 -1.0000
vn 1.0000 -0.0000 0.0067
vn -0.0067 -0.0000 1.0000
vn -1.0000 -0.0000 -0.0067
vn -0.0000 -1.0000 -0.0000
vn -0.0000 1.0000 -0.0000
vt 0.375000 0.000000
vt 0.625000 0.000000
vt 0.625000 0.250000
vt 0.375000 0.250000
vt 0.625000 0.500000
vt 0.375000 0.500000
vt 0.625000 0.750000
vt 0.375000 0.750000
vt 0.625000 1.000000
vt 0.375000 1.000000
vt 0.125000 0.500000
vt 0.125000 0.750000
vt 0.875000 0.500000
vt 0.875000 0.750000
s 0
usemtl Planta
f 7/6/3 8/5/3 6/7/3 5/8/3
f 3/11/5 7/6/5 5/8/5 1/12/5
f 15/6/3 16/5/3 14/7/3 13/8/3
f 11/11/5 15/6/5 13/8/5 9/12/5
f 17/1/1 18/2/1 20/3/1 19/4/1
f 19/4/2 20/3/2 24/5/2 23/6/2
f 23/6/3 24/5/3 22/7/3 21/8/3
f 21/8/4 22/7/4 18/9/4 17/10/4
f 19/11/5 23/6/5 21/8/5 17/12/5
f 31/6/3 32/5/3 30/7/3 29/8/3
f 27/11/5 31/6/5 29/8/5 25/12/5
f 39/6/3 40/5/3 38/7/3 37/8/3
f 35/11/5 39/6/5 37/8/5 33/12/5
f 47/6/3 48/5/3 46/7/3 45/8/3
f 43/11/5 47/6/5 45/8/5 41/12/5
f 55/6/3 56/5/3 54/7/3 53/8/3
f 51/11/5 55/6/5 53/8/5 49/12/5
f 63/6/3 64/5/3 62/7/3 61/8/3
f 59/11/5 63/6/5 61/8/5 57/12/5
f 65/1/1 66/2/1 68/3/1 67/4/1
f 67/4/2 68/3/2 72/5/2 71/6/2
f 71/6/3 72/5/3 70/7/3 69/8/3
f 69/8/4 70/7/4 66/9/4 65/10/4
f 67/11/5 71/6/5 69/8/5 65/12/5
usemtl 
f 8/5/6 4/13/6 2/14/6 6/7/6
f 16/5/6 12/13/6 10/14/6 14/7/6
f 24/5/6 20/13/6 18/14/6 22/7/6
f 32/5/6 28/13/6 26/14/6 30/7/6
f 40/5/6 36/13/6 34/14/6 38/7/6
f 48/5/6 44/13/6 42/14/6 46/7/6
f 56/5/6 52/13/6 50/14/6 54/7/6
f 64/5/6 60/13/6 58/14/6 62/7/6
f 72/5/6 68/13/6 66/14/6 70/7/6
usemtl Livro1
f 1/1/1 2/2/1 4/3/1 3/4/1
f 3/4/2 4/3/2 8/5/2 7/6/2
f 5/8/4 6/7/4 2/9/4 1/10/4
f 57/1/1 58/2/1 60/3/1 59/4/1
f 59/4/2 60/3/2 64/5/2 63/6/2
f 61/8/4 62/7/4 58/9/4 57/10/4
usemtl Livro2
f 49/1/1 50/2/1 52/3/1 51/4/1
f 51/4/2 52/3/2 56/5/2 55/6/2
f 53/8/4 54/7/4 50/9/4 49/10/4
usemtl Livro4
f 9/1/1 10/2/1 12/3/1 11/4/1
f 11/4/2 12/3/2 16/5/2 15/6/2
f 13/8/4 14/7/4 10/9/4 9/10/4
f 41/1/1 42/2/1 44/3/1 43/4/1
f 43/4/2 44/3/2 48/5/2 47/6/2
f 45/8/4 46/7/4 42/9/4 41/10/4
usemtl Livro3
f 25/1/1 26/2/1 28/3/1 27/4/1
f 27/4/2 28/3/2 32/5/2 31/6/2
f 29/8/4 30/7/4 26/9/4 25/10/4
f 33/1/1 34/2/1 36/3/1 35/4/1
f 35/4/2 36/3/2 40/5/2 39/6/2
f 37/8/4 38/7/4 34/9/4 33/10/4
