# Blender 4.1.1
# www.blender.org
mtllib Clock.mtl
o Relogio
v 0.003066 0.000000 -0.071565
v -0.071565 -0.000000 -0.071565
v 0.003066 0.035782 -0.061977
v -0.071565 0.035782 -0.061977
v 0.003066 0.061977 -0.035782
v -0.071565 0.061977 -0.035782
v 0.003066 0.071565 0.000000
v -0.071565 0.071565 0.000000
v 0.003066 0.061977 0.035782
v -0.071565 0.061977 0.035782
v 0.003066 0.035782 0.061977
v -0.071565 0.035782 0.061977
v 0.003066 0.000000 0.071565
v -0.071565 -0.000000 0.071565
v 0.003066 -0.035782 0.061977
v -0.071565 -0.035782 0.061977
v 0.003066 -0.061977 0.035782
v -0.071565 -0.061977 0.035782
v 0.003066 -0.071565 0.000000
v -0.071565 -0.071565 0.000000
v 0.003066 -0.061977 -0.035782
v -0.082534 -0.057427 -0.040333
v 0.003066 -0.035782 -0.061977
v -0.082534 -0.040333 -0.057427
v -0.092012 0.035782 -0.061977
v -0.092012 -0.000000 -0.071565
v -0.092012 0.061977 -0.035782
v -0.092012 0.071565 0.000000
v -0.092012 0.061977 0.035782
v -0.092012 0.035782 0.061977
v -0.092012 -0.000000 0.071565
v -0.092012 -0.035782 0.061977
v -0.092012 -0.061977 0.035782
v -0.092012 -0.071565 0.000000
v -0.095877 -0.057427 -0.040333
v -0.095877 -0.040333 -0.057427
v -0.071565 0.057319 0.285484
v -0.071565 0.093102 0.275896
v -0.092012 0.057319 0.285484
v -0.092012 0.093102 0.275896
v -0.071565 0.507923 -0.116922
v -0.071565 0.498335 -0.152704
v -0.092012 0.507923 -0.116922
v -0.092012 0.498335 -0.152704
v -0.082534 -0.267450 -0.284545
v -0.082534 -0.284545 -0.267450
v -0.095877 -0.267450 -0.284545
v -0.095877 -0.284545 -0.267450
v -0.072522 -0.000000 -0.891012
v -0.072522 0.445506 -0.771639
v -0.072522 0.771639 -0.445506
v -0.072522 0.891012 0.000000
v -0.072522 0.771639 0.445506
v -0.072522 0.445506 0.771639
v -0.072522 -0.000000 0.891012
v -0.072522 -0.445506 0.771639
v -0.072522 -0.771639 0.445506
v -0.072522 -0.891012 0.000000
v -0.072522 -0.771639 -0.445506
v -0.072522 -0.445506 -0.771639
v 0.046754 0.445506 -0.771639
v 0.046754 0.000000 -0.891012
v 0.046754 0.771639 -0.445506
v 0.046754 0.891012 0.000000
v 0.046754 0.771639 0.445506
v 0.046754 0.445506 0.771639
v 0.046754 0.000000 0.891012
v 0.046754 -0.445506 0.771639
v 0.046754 -0.771639 0.445506
v 0.046754 -0.891012 0.000000
v 0.046754 -0.771639 -0.445506
v 0.046754 -0.445506 -0.771639
v -0.072522 0.418632 -0.725092
v -0.072522 -0.000000 -0.837264
v -0.072522 0.725092 -0.418632
v -0.072522 0.837264 0.000000
v -0.072522 0.725092 0.418632
v -0.072522 0.418632 0.725092
v -0.072522 -0.000000 0.837264
v -0.072522 -0.418632 0.725092
v -0.072522 -0.725092 0.418632
v -0.072522 -0.837264 0.000000
v -0.072522 -0.725092 -0.418632
v -0.072522 -0.418632 -0.725092
v -0.025640 0.418632 -0.725092
v -0.025640 -0.000000 -0.837264
v -0.025640 0.725092 -0.418632
v -0.025640 0.837264 0.000000
v -0.025640 0.725092 0.418632
v -0.025640 0.418632 0.725092
v -0.025640 -0.000000 0.837264
v -0.025640 -0.418632 0.725092
v -0.025640 -0.725092 0.418632
v -0.025640 -0.837264 0.000000
v -0.025640 -0.725092 -0.418632
v -0.025640 -0.418632 -0.725092
vn -0.0000 0.2588 -0.9659
vn -0.0000 0.7071 -0.7071
vn -0.0000 0.9659 -0.2588
vn -0.0000 0.9659 0.2588
vn -0.0000 0.7071 0.7071
vn -0.0000 0.2588 0.9659
vn -0.0000 -0.2588 0.9659
vn -0.0000 -0.7071 0.7071
vn -0.0000 -0.9659 0.2588
vn -0.0187 -0.9553 -0.2951
vn -0.0000 -0.7071 -0.7071
vn -0.0187 -0.2951 -0.9553
vn 1.0000 -0.0000 -0.0000
vn -0.9999 0.0112 0.0112
vn -0.0000 -0.3308 -0.9437
vn -1.0000 -0.0000 -0.0000
vn -0.0000 -0.9437 -0.3308
vn -0.0000 -0.2588 -0.9659
vn -0.0000 -0.9659 -0.2588
vt 1.000000 0.500000
vt 1.000000 1.000000
vt 0.916667 1.000000
vt 0.916667 0.500000
vt 0.833333 1.000000
vt 0.833333 0.500000
vt 0.750000 1.000000
vt 0.750000 0.500000
vt 0.666667 1.000000
vt 0.666667 0.500000
vt 0.583333 1.000000
vt 0.583333 0.500000
vt 0.500000 1.000000
vt 0.500000 0.500000
vt 0.416667 1.000000
vt 0.416667 0.500000
vt 0.333333 1.000000
vt 0.333333 0.500000
vt 0.250000 1.000000
vt 0.250000 0.500000
vt 0.166667 1.000000
vt 0.166667 0.500000
vt 0.083333 1.000000
vt 0.083333 0.500000
vt 0.000000 1.000000
vt 0.000000 0.500000
vt 0.750000 0.490000
vt 0.870000 0.457846
vt 0.957846 0.370000
vt 0.990000 0.250000
vt 0.957846 0.130000
vt 0.870000 0.042154
vt 0.750000 0.010000
vt 0.630000 0.042154
vt 0.542154 0.130000
vt 0.510000 0.250000
vt 0.542154 0.370000
vt 0.630000 0.457846
vt 0.370000 0.457846
vt 0.250000 0.490000
vt 0.130000 0.457846
vt 0.042154 0.370000
vt 0.010000 0.250000
vt 0.042154 0.130000
vt 0.130000 0.042154
vt 0.250000 0.010000
vt 0.370000 0.042154
vt 0.457846 0.130000
vt 0.490000 0.250000
vt 0.457846 0.370000
s 0
usemtl Relogio
f 1/1/1 2/2/1 4/3/1 3/4/1
f 3/4/2 4/3/2 6/5/2 5/6/2
f 5/6/3 6/5/3 8/7/3 7/8/3
f 7/8/4 8/7/4 10/9/4 9/10/4
f 9/10/5 10/9/5 12/11/5 11/12/5
f 11/12/6 12/11/6 14/13/6 13/14/6
f 13/14/7 14/13/7 16/15/7 15/16/7
f 15/16/8 16/15/8 18/17/8 17/18/8
f 17/18/9 18/17/9 20/19/9 19/20/9
f 19/20/10 20/19/10 22/21/10 21/22/10
f 20/19/9 18/17/9 33/17/9 34/19/9
f 21/22/11 22/21/11 24/23/11 23/24/11
f 23/24/12 24/23/12 2/25/12 1/26/12
f 1/27/13 3/28/13 5/29/13 7/30/13 9/31/13 11/32/13 13/33/13 15/34/13 17/35/13 19/36/13 21/37/13 23/38/13
f 25/39/14 26/40/14 36/41/14 35/42/14 34/43/14 33/44/14 32/45/14 31/46/14 30/47/14 29/48/14 28/49/14 27/50/14
f 18/17/8 16/15/8 32/15/8 33/17/8
f 16/15/7 14/13/7 31/13/7 32/15/7
f 31/13/9 14/13/9 37/13/9 39/13/9
f 12/11/5 10/9/5 29/9/5 30/11/5
f 10/9/4 8/7/4 28/7/4 29/9/4
f 2/25/15 24/23/15 36/23/15 26/25/15
f 4/3/1 2/2/1 26/2/1 25/3/1
f 27/50/16 28/49/16 43/49/16 44/50/16
f 35/42/16 36/41/16 47/41/16 48/42/16
f 6/5/2 4/3/2 25/3/2 27/5/2
f 22/21/17 20/19/17 34/19/17 35/21/17
f 37/13/6 38/11/6 40/11/6 39/13/6
f 30/47/16 31/46/16 39/46/16 40/47/16
f 12/11/3 30/11/3 40/11/3 38/11/3
f 14/13/13 12/11/13 38/11/13 37/13/13
f 41/7/3 42/5/3 44/5/3 43/7/3
f 6/5/18 27/5/18 44/5/18 42/5/18
f 28/7/6 8/7/6 41/7/6 43/7/6
f 8/7/13 6/5/13 42/5/13 41/7/13
f 45/23/11 46/21/11 48/21/11 47/23/11
f 36/23/2 24/23/2 45/23/2 47/23/2
f 24/23/13 22/21/13 46/21/13 45/23/13
f 22/21/8 35/21/8 48/21/8 46/21/8
f 53/48/13 54/47/13 78/47/13 77/48/13
f 61/39/16 62/40/16 72/41/16 71/42/16 70/43/16 69/44/16 68/45/16 67/46/16 66/47/16 65/48/16 64/49/16 63/50/16
f 50/39/7 49/40/7 62/40/7 61/39/7
f 57/44/2 56/45/2 68/45/2 69/44/2
f 54/47/11 53/48/11 65/48/11 66/47/11
f 49/40/6 60/41/6 72/41/6 62/40/6
f 51/50/8 50/39/8 61/39/8 63/50/8
f 58/43/3 57/44/3 69/44/3 70/43/3
f 55/46/18 54/47/18 66/47/18 67/46/18
f 52/49/9 51/50/9 63/50/9 64/49/9
f 59/42/4 58/43/4 70/43/4 71/42/4
f 56/45/1 55/46/1 67/46/1 68/45/1
f 53/48/19 52/49/19 64/49/19 65/48/19
f 60/41/5 59/42/5 71/42/5 72/41/5
f 83/42/11 84/41/11 96/41/11 95/42/11
f 60/41/13 49/40/13 74/40/13 84/41/13
f 50/39/13 51/50/13 75/50/13 73/39/13
f 57/44/13 58/43/13 82/43/13 81/44/13
f 54/47/13 55/46/13 79/46/13 78/47/13
f 51/50/13 52/49/13 76/49/13 75/50/13
f 58/43/13 59/42/13 83/42/13 82/43/13
f 55/46/13 56/45/13 80/45/13 79/46/13
f 52/49/13 53/48/13 77/48/13 76/49/13
f 59/42/13 60/41/13 84/41/13 83/42/13
f 49/40/13 50/39/13 73/39/13 74/40/13
f 56/45/13 57/44/13 81/44/13 80/45/13
f 74/40/1 73/39/1 85/39/1 86/40/1
f 80/45/8 81/44/8 93/44/8 92/45/8
f 77/48/5 78/47/5 90/47/5 89/48/5
f 84/41/18 74/40/18 86/40/18 96/41/18
f 73/39/2 75/50/2 87/50/2 85/39/2
f 81/44/9 82/43/9 94/43/9 93/44/9
f 78/47/6 79/46/6 91/46/6 90/47/6
f 75/50/3 76/49/3 88/49/3 87/50/3
f 82/43/19 83/42/19 95/42/19 94/43/19
f 79/46/7 80/45/7 92/45/7 91/46/7
f 76/49/4 77/48/4 89/48/4 88/49/4
usemtl Branco
f 85/39/13 87/50/13 88/49/13 89/48/13 90/47/13 91/46/13 92/45/13 93/44/13 94/43/13 95/42/13 96/41/13 86/40/13
