# Blender 4.1.1
# www.blender.org
mtllib Picture.mtl
o PortaRetratos
v -0.416158 -0.522973 -0.361543
v -0.466557 0.539769 -0.261490
v 0.538231 -0.522973 0.119198
v 0.487833 0.539769 0.219251
v -0.487833 -0.539769 -0.219251
v -0.538231 0.522973 -0.119198
v 0.466557 -0.539769 0.261490
v 0.416158 0.522973 0.361543
v 0.493729 -0.475905 0.102337
v -0.376120 -0.475905 -0.335820
v -0.422055 0.492700 -0.244629
v 0.447795 0.492700 0.193528
v 0.471244 -0.481174 0.146977
v -0.398606 -0.481174 -0.291180
v -0.444540 0.487431 -0.199990
v 0.425310 0.487431 0.238167
v -0.495138 -0.537273 0.618336
v -0.148746 0.203733 -0.069337
v -0.202137 -0.537273 0.765925
v 0.144255 0.203733 0.078252
v -0.526207 -0.465507 0.680017
v -0.179816 0.275499 -0.007656
v -0.233206 -0.465507 0.827606
v 0.113185 0.275499 0.139933
vn 0.4474 0.1048 -0.8882
vn 0.8931 -0.0000 0.4499
vn -0.4474 -0.1048 0.8882
vn -0.8931 -0.0000 -0.4499
vn 0.0472 -0.9945 -0.0936
vn -0.0472 0.9945 0.0936
vn 0.3119 -0.7205 -0.6193
vn -0.3119 0.7205 0.6193
vn -0.3241 -0.6934 0.6435
vn 0.3241 0.6934 -0.6435
vt 0.625000 0.250000
vt 0.375000 0.250000
vt 0.625000 0.500000
vt 0.375000 0.500000
vt 0.625000 0.750000
vt 0.375000 0.750000
vt 0.625000 1.000000
vt 0.375000 1.000000
vt 0.125000 0.500000
vt 0.125000 0.750000
vt 0.875000 0.500000
vt 0.875000 0.750000
vt 0.375000 0.000000
vt 0.625000 0.000000
s 0
usemtl MadeiraPote
f 4/1/1 3/2/1 9/2/1 12/1/1
f 3/2/2 4/1/2 8/3/2 7/4/2
f 7/4/3 8/3/3 6/5/3 5/6/3
f 5/6/4 6/5/4 2/7/4 1/8/4
f 3/9/5 7/4/5 5/6/5 1/10/5
f 8/3/6 4/11/6 2/12/6 6/5/6
f 11/12/5 12/11/5 16/11/5 15/12/5
f 1/8/1 2/7/1 11/7/1 10/8/1
f 2/12/1 4/11/1 12/11/1 11/12/1
f 3/9/1 1/10/1 10/10/1 9/9/1
f 9/9/6 10/10/6 14/10/6 13/9/6
f 12/1/4 9/2/4 13/2/4 16/1/4
f 10/8/2 11/7/2 15/7/2 14/8/2
f 17/13/7 18/14/7 20/1/7 19/2/7
f 19/2/2 20/1/2 24/3/2 23/4/2
f 23/4/8 24/3/8 22/5/8 21/6/8
f 21/6/4 22/5/4 18/7/4 17/8/4
f 19/9/9 23/4/9 21/6/9 17/10/9
f 24/3/10 20/11/10 18/12/10 22/5/10
usemtl Branco
f 14/13/1 15/14/1 16/1/1 13/2/1
