# Blender 4.1.1
# www.blender.org
mtllib Shelf.mtl
o Estante
v -2.255977 -3.114006 -1.166397
v -2.255977 3.114006 -1.166397
v 2.271503 -3.114006 -1.135863
v 2.271503 3.114006 -1.135863
v -2.271503 -3.114006 1.135863
v -2.271503 3.114006 1.135863
v 2.255977 -3.114006 1.166397
v 2.255977 3.114006 1.166397
v 2.202770 -3.019456 -1.136327
v -2.187243 -3.019456 -1.165933
v -2.187243 3.019456 -1.165933
v 2.202770 3.019456 -1.136327
v 2.187979 -3.019456 1.056778
v -2.202034 -3.019456 1.027172
v -2.202034 3.019456 1.027172
v 2.187979 3.019456 1.056778
v -2.238942 -1.109827 -1.120815
v -2.238942 -1.013835 -1.120815
v 2.253855 -1.109827 -1.090515
v 2.253855 -1.013835 -1.090515
v -2.254147 -1.109827 1.133692
v -2.254147 -1.013835 1.133692
v 2.238651 -1.109827 1.163991
v 2.238651 -1.013835 1.163991
v 0.054843 -3.068788 -1.015090
v -0.041146 -3.068788 -1.015737
v 0.054842 0.854562 -1.015090
v -0.041147 0.854562 -1.015737
v 0.040320 -3.068788 1.138355
v -0.055669 -3.068788 1.137708
v 0.040320 0.854562 1.138355
v -0.055670 0.854562 1.137708
v -2.238942 0.796838 -1.120815
v -2.238942 0.892829 -1.120815
v 2.253855 0.796838 -1.090515
v 2.253855 0.892829 -1.090515
v -2.254147 0.796838 1.133692
v -2.254147 0.892829 1.133692
v 2.238651 0.796838 1.163991
v 2.238651 0.892829 1.163991
vn 0.0067 -0.0000 -1.0000
vn 1.0000 -0.0000 0.0067
vn -0.0067 -0.0000 1.0000
vn -1.0000 -0.0000 -0.0067
vn -0.0000 -1.0000 -0.0000
vn -0.0000 1.0000 -0.0000
vt 0.625000 0.250000
vt 0.375000 0.250000
vt 0.625000 0.500000
vt 0.375000 0.500000
vt 0.625000 0.750000
vt 0.375000 0.750000
vt 0.625000 1.000000
vt 0.375000 1.000000
vt 0.125000 0.500000
vt 0.125000 0.750000
vt 0.875000 0.500000
vt 0.875000 0.750000
vt 0.375000 0.000000
vt 0.625000 0.000000
s 0
usemtl Madeira2
f 4/1/1 3/2/1 9/2/1 12/1/1
f 3/2/2 4/1/2 8/3/2 7/4/2
f 7/4/3 8/3/3 6/5/3 5/6/3
f 5/6/4 6/5/4 2/7/4 1/8/4
f 3/9/5 7/4/5 5/6/5 1/10/5
f 8/3/6 4/11/6 2/12/6 6/5/6
f 11/12/5 12/11/5 16/11/5 15/12/5
f 1/8/1 2/7/1 11/7/1 10/8/1
f 2/12/1 4/11/1 12/11/1 11/12/1
f 3/9/1 1/10/1 10/10/1 9/9/1
f 14/13/1 15/14/1 16/1/1 13/2/1
f 9/9/6 10/10/6 14/10/6 13/9/6
f 12/1/4 9/2/4 13/2/4 16/1/4
f 10/8/2 11/7/2 15/7/2 14/8/2
f 17/13/1 18/14/1 20/1/1 19/2/1
f 19/2/2 20/1/2 24/3/2 23/4/2
f 23/4/3 24/3/3 22/5/3 21/6/3
f 21/6/4 22/5/4 18/7/4 17/8/4
f 19/9/5 23/4/5 21/6/5 17/10/5
f 24/3/6 20/11/6 18/12/6 22/5/6
f 25/13/1 26/14/1 28/1/1 27/2/1
f 27/2/6 28/1/6 32/3/6 31/4/6
f 31/4/3 32/3/3 30/5/3 29/6/3
f 29/6/5 30/5/5 26/7/5 25/8/5
f 27/9/2 31/4/2 29/6/2 25/10/2
f 32/3/4 28/11/4 26/12/4 30/5/4
f 33/13/1 34/14/1 36/1/1 35/2/1
f 35/2/2 36/1/2 40/3/2 39/4/2
f 39/4/3 40/3/3 38/5/3 37/6/3
f 37/6/4 38/5/4 34/7/4 33/8/4
f 35/9/5 39/4/5 37/6/5 33/10/5
f 40/3/6 36/11/6 34/12/6 38/5/6
